#!OML:ASF H:\Dans Jumps\Project 1\Capture day 1\Session 1\subject.ASF
:FULLY-SPECIFIED
:DEGREES
240
root 0.555753 16.7136 -14.7578 7.4421 -3.04946 -1.87088
lowerback 6.00007 -0.0507391 0.191551
upperback 6.06896 -0.100179 1.77026
thorax 2.90246 -0.0851982 1.72101
lowerneck -14.109 1.23304 -1.69601
upperneck 26.5981 2.28388 -0.384896
head 10.8893 0.813939 0.454718
rclavicle 9.93923e-016 2.92213e-014
rhumerus -31.679 -16.5467 -75.6351
rradius 25.9474
rwrist 29.9038
rhand -18.0852 -26.55
rfingers 7.12502
rthumb 8.18813 -56.3713
lclavicle 9.93923e-016 2.92213e-014
lhumerus -28.7402 -2.14514 87.2878
lradius 19.7807
lwrist 8.7983
lhand -25.9685 -3.85594
lfingers 7.12502
lthumb 0.576193 26.123
rfemur -30.3282 -1.16912 20.7809
rtibia 45.2755
rfoot -21.1276 -3.60509
rtoes 4.60411
lfemur -29.5884 10.0995 -19.4796
ltibia 44.9194
lfoot -19.5514 8.2045
ltoes -2.19075
241
root 0.555645 16.6992 -14.7667 7.46406 -3.08362 -1.87529
lowerback 6.10397 -0.0502299 0.181237
upperback 6.09217 -0.0990702 1.76769
thorax 2.86891 -0.0850233 1.7243
lowerneck -14.1204 1.24043 -1.68736
upperneck 26.5145 2.29362 -0.395535
head 10.8605 0.818936 0.450268
rclavicle 1.19271e-015 -4.96962e-015
rhumerus -31.7993 -16.5512 -75.5861
rradius 25.97
rwrist 29.8633
rhand -18.081 -26.5547
rfingers 7.12502
rthumb 8.19217 -56.3759
lclavicle 1.19271e-015 -4.96962e-015
lhumerus -28.9092 -2.19947 87.3468
lradius 19.8084
lwrist 8.91174
lhand -25.8844 -3.709
lfingers 7.12502
lthumb 0.657385 26.2697
rfemur -30.5429 -1.15063 20.7915
rtibia 45.5555
rfoot -21.2203 -3.63751
rtoes 4.57548
lfemur -29.7959 10.1438 -19.4906
ltibia 45.1991
lfoot -19.6507 8.26581
ltoes -2.26576
242
root 0.555583 16.6849 -14.7755 7.48815 -3.11679 -1.88295
lowerback 6.20519 -0.0501078 0.175461
upperback 6.11591 -0.0983923 1.76607
thorax 2.83744 -0.0849277 1.72604
lowerneck -14.1342 1.24774 -1.67577
upperneck 26.4315 2.30428 -0.412338
head 10.8325 0.823883 0.443256
rclavicle 9.44227e-015 1.78906e-014
rhumerus -31.9171 -16.5401 -75.5454
rradius 26.005
rwrist 29.7959
rhand -18.0756 -26.5477
rfingers 7.12502
rthumb 8.1974 -56.3686
lclavicle 9.44227e-015 1.78906e-014
lhumerus -29.0686 -2.25635 87.4076
lradius 19.8308
lwrist 9.03327
lhand -25.8002 -3.5581
lfingers 7.12502
lthumb 0.738681 26.4204
rfemur -30.7544 -1.1266 20.8042
rtibia 45.8285
rfoot -21.3133 -3.66947
rtoes 4.56613
lfemur -30.0044 10.1876 -19.4989
ltibia 45.475
lfoot -19.7489 8.33064
ltoes -2.34723
243
root 0.555578 16.671 -14.7842 7.51458 -3.14818 -1.89386
lowerback 6.3066 -0.0504288 0.173405
upperback 6.13821 -0.0981817 1.76639
thorax 2.8044 -0.0849611 1.72771
lowerneck -14.1476 1.25447 -1.6606
upperneck 26.3476 2.31559 -0.437827
head 10.8044 0.828447 0.4326
rclavicle -1.43125e-014 5.96354e-016
rhumerus -32.0376 -16.5115 -75.5113
rradius 26.0524
rwrist 29.7112
rhand -18.0614 -26.5539
rfingers 7.12502
rthumb 8.21103 -56.3744
lclavicle -1.43125e-014 5.96354e-016
lhumerus -29.222 -2.31014 87.4705
lradius 19.8493
lwrist 9.16303
lhand -25.6948 -3.36748
lfingers 7.12502
lthumb 0.840505 26.6106
rfemur -30.9638 -1.10009 20.8196
rtibia 46.0946
rfoot -21.4037 -3.70176
rtoes 4.56
lfemur -30.2141 10.2311 -19.5045
ltibia 45.7468
lfoot -19.8443 8.39951
ltoes -2.44651
244
root 0.55545 16.6573 -14.7929 7.5493 -3.17677 -1.90924
lowerback 6.40179 -0.0508262 0.174721
upperback 6.1618 -0.0980649 1.76815
thorax 2.77621 -0.0849711 1.72898
lowerneck -14.1604 1.26153 -1.65311
upperneck 26.2536 2.32633 -0.453295
head 10.7722 0.833354 0.42672
rclavicle 3.08116e-015 -1.59028e-015
rhumerus -32.1471 -16.4813 -75.4849
rradius 26.1007
rwrist 29.6245
rhand -18.0379 -26.5687
rfingers 7.12502
rthumb 8.23376 -56.3883
lclavicle 3.08116e-015 -1.59028e-015
lhumerus -29.3577 -2.36031 87.5303
lradius 19.8595
lwrist 9.28032
lhand -25.6752 -3.33201
lfingers 7.12502
lthumb 0.859434 26.646
rfemur -31.1779 -1.06774 20.84
rtibia 46.3543
rfoot -21.492 -3.73749
rtoes 4.56049
lfemur -30.4326 10.2718 -19.5053
ltibia 46.0157
lfoot -19.938 8.46714
ltoes -2.53928
245
root 0.555302 16.6439 -14.8016 7.58789 -3.20262 -1.92331
lowerback 6.49654 -0.0514268 0.175061
upperback 6.18368 -0.0982286 1.77025
thorax 2.7465 -0.0851495 1.73116
lowerneck -14.1697 1.26793 -1.64389
upperneck 26.1541 2.33635 -0.471848
head 10.7374 0.837839 0.419285
rclavicle 2.38542e-015 6.55989e-015
rhumerus -32.2601 -16.4595 -75.4517
rradius 26.1301
rwrist 29.6062
rhand -18.069 -26.5201
rfingers 7.12502
rthumb 8.20374 -56.3408
lclavicle 2.38542e-015 6.55989e-015
lhumerus -29.4848 -2.40165 87.5887
lradius 19.8634
lwrist 9.38948
lhand -25.6642 -3.31492
lfingers 7.12502
lthumb 0.870094 26.6631
rfemur -31.3926 -1.0332 20.8587
rtibia 46.6081
rfoot -21.5789 -3.77695
rtoes 4.56758
lfemur -30.6548 10.3107 -19.5084
ltibia 46.2803
lfoot -20.0281 8.53652
ltoes -2.64797
246
root 0.555081 16.6308 -14.8102 7.63017 -3.22844 -1.93721
lowerback 6.58922 -0.0515831 0.17369
upperback 6.20541 -0.0979068 1.77321
thorax 2.7178 -0.0851696 1.73516
lowerneck -14.1823 1.27435 -1.63415
upperneck 26.0528 2.34691 -0.492605
head 10.7026 0.842371 0.411079
rclavicle 1.09332e-015 2.32578e-014
rhumerus -32.3672 -16.4419 -75.4176
rradius 26.1453
rwrist 29.6134
rhand -18.1177 -26.4591
rfingers 7.12502
rthumb 8.15673 -56.2817
lclavicle 1.09332e-015 2.32578e-014
lhumerus -29.6088 -2.43142 87.6441
lradius 19.8705
lwrist 9.48709
lhand -25.654 -3.29725
lfingers 7.12502
lthumb 0.879949 26.6807
rfemur -31.6076 -0.992723 20.8769
rtibia 46.8567
rfoot -21.6664 -3.82298
rtoes 4.57402
lfemur -30.8787 10.3488 -19.5119
ltibia 46.5405
lfoot -20.1145 8.60689
ltoes -2.76794
